<?xml version="1.0" encoding="UTF-8" standalone="no"?>
<!-- Created with Inkscape (http://www.inkscape.org/) -->

<svg
   xmlns:dc="http://purl.org/dc/elements/1.1/"
   xmlns:cc="http://creativecommons.org/ns#"
   xmlns:rdf="http://www.w3.org/1999/02/22-rdf-syntax-ns#"
   xmlns:svg="http://www.w3.org/2000/svg"
   xmlns="http://www.w3.org/2000/svg"
   xmlns:sodipodi="http://sodipodi.sourceforge.net/DTD/sodipodi-0.dtd"
   xmlns:inkscape="http://www.inkscape.org/namespaces/inkscape"
   width="210mm"
   height="297mm"
   viewBox="0 0 744.09448819 1052.3622047"
   id="svg2"
   version="1.1"
   inkscape:version="0.91 r13725"
   sodipodi:docname="drawing.svg">
  <defs
     id="defs4">
    <inkscape:perspective
       sodipodi:type="inkscape:persp3d"
       inkscape:vp_x="0 : 526.1811 : 1"
       inkscape:vp_y="0 : 1000 : 0"
       inkscape:vp_z="744.09449 : 526.1811 : 1"
       inkscape:persp3d-origin="372.04724 : 350.7874 : 1"
       id="perspective4269" />
  </defs>
  <sodipodi:namedview
     id="base"
     pagecolor="#ffffff"
     bordercolor="#666666"
     borderopacity="1.0"
     inkscape:pageopacity="0.0"
     inkscape:pageshadow="2"
     inkscape:zoom="1.63"
     inkscape:cx="302.65118"
     inkscape:cy="462.82007"
     inkscape:document-units="px"
     inkscape:current-layer="layer1"
     showgrid="false"
     inkscape:window-width="1243"
     inkscape:window-height="755"
     inkscape:window-x="37"
     inkscape:window-y="0"
     inkscape:window-maximized="1" />
  <metadata
     id="metadata7">
    <rdf:RDF>
      <cc:Work
         rdf:about="">
        <dc:format>image/svg+xml</dc:format>
        <dc:type
           rdf:resource="http://purl.org/dc/dcmitype/StillImage" />
        <dc:title></dc:title>
      </cc:Work>
    </rdf:RDF>
  </metadata>
  <g
     inkscape:label="Layer 1"
     inkscape:groupmode="layer"
     id="layer1">
    <path
       style="fill:#e91e63;fill-opacity:1"
       d=""
       id="path4239"
       inkscape:connector-curvature="0" />
    <path
       style="fill:#e91e63;fill-opacity:1"
       d=""
       id="path4241"
       inkscape:connector-curvature="0" />
    <path
       style="fill:#e91e63;fill-opacity:1"
       d=""
       id="path4243"
       inkscape:connector-curvature="0" />
    <path
       style="fill:#e91e63;fill-opacity:1"
       d=""
       id="path4245"
       inkscape:connector-curvature="0" />
    <path
       style="fill:#e91e63;fill-opacity:1"
       d=""
       id="path4247"
       inkscape:connector-curvature="0" />
    <path
       style="fill:#e91e63;fill-opacity:1"
       d=""
       id="path4249"
       inkscape:connector-curvature="0" />
    <path
       style="fill:#e91e63;fill-opacity:1"
       d=""
       id="path4251"
       inkscape:connector-curvature="0" />
    <path
       style="fill:#e91e63;fill-opacity:1"
       d=""
       id="path4253"
       inkscape:connector-curvature="0" />
    <path
       style="fill:#e91e63;fill-opacity:1"
       d=""
       id="path4255"
       inkscape:connector-curvature="0" />
    <path
       style="fill:#e91e63;fill-opacity:1"
       d=""
       id="path4257"
       inkscape:connector-curvature="0" />
    <circle
       style="fill:#e91e63;fill-opacity:1;stroke:none;stroke-opacity:1"
       id="path4259"
       cx="157.52846"
       cy="543.22998"
       r="80"
       inkscape:export-xdpi="90.300003"
       inkscape:export-ydpi="90.300003" />
    <path
       style="fill:#ffffff;fill-opacity:1;stroke:#000000;stroke-width:0.61349696;stroke-opacity:1"
       d="m 185.69733,600.6044 c -1.87783,-1.87783 -3.41424,-3.67482 -3.41424,-3.99331 0,-0.31849 -0.82822,-1.44573 -1.84049,-2.50497 -1.01227,-1.05924 -1.84049,-2.17257 -1.84049,-2.47406 0,-0.30148 -0.55215,-1.14081 -1.227,-1.86517 -0.67484,-0.72437 -1.22699,-1.67908 -1.22699,-2.12159 0,-0.44251 -0.24462,-0.80457 -0.54359,-0.80457 -0.29898,0 -0.99184,-0.89724 -1.53969,-1.99386 -0.54785,-1.09663 -1.81053,-3.37424 -2.80595,-5.06135 -0.99542,-1.68712 -3.26273,-5.93233 -5.03845,-9.43381 l -3.2286,-6.36632 -9.2194,0.28058 c -10.14523,0.30876 -11.98015,0.82423 -11.98015,3.36556 0,1.64255 8.34372,19.35018 9.29214,19.72045 0.2881,0.11248 0.52381,0.73364 0.52381,1.38037 0,0.64673 0.27608,1.17587 0.6135,1.17587 0.33742,0 0.6135,0.69018 0.6135,1.53374 0,0.84356 -0.27608,1.53374 -0.6135,1.53374 -0.33742,0 -0.6135,0.43383 -0.6135,0.96407 0,1.10183 -1.43273,2.71691 -2.41016,2.71691 -0.36153,0 -0.65732,0.27608 -0.65732,0.6135 0,0.33742 -0.41786,0.6135 -0.92857,0.6135 -2.04934,0 -6.4334,-3.53459 -6.4334,-5.18684 0,-0.52148 -0.27607,-0.94813 -0.61349,-0.94813 -0.33743,0 -0.6135,-0.55215 -0.6135,-1.227 0,-0.67484 -0.27607,-1.22699 -0.6135,-1.22699 -0.33742,0 -0.61349,-0.55215 -0.61349,-1.22699 0,-0.67485 -0.27608,-1.227 -0.6135,-1.227 -0.33742,0 -0.6135,-0.55215 -0.6135,-1.22699 0,-0.67485 -0.27607,-1.227 -0.61349,-1.227 -0.33743,0 -0.6135,-0.55214 -0.6135,-1.22699 0,-0.67485 -0.27607,-1.22699 -0.6135,-1.22699 -0.33742,0 -0.61349,-0.31189 -0.61349,-0.69308 0,-0.3812 -1.38037,-3.43539 -3.06749,-6.7871 -2.73414,-5.43179 -3.06748,-6.52406 -3.06748,-10.05144 0,-4.04859 0.5761,-5.67602 2.79466,-7.89457 1.83014,-1.83014 3.72119,-2.79467 5.47922,-2.79467 0.84814,0 1.54207,-0.27608 1.54207,-0.6135 0,-0.33742 1.35779,-0.6135 3.01731,-0.6135 5.0736,0 4.86058,0.45264 4.56654,-9.70312 -0.31354,-10.82898 -1.10955,-15.09428 -3.11076,-16.66843 -1.23584,-0.97211 -1.29398,-1.16742 -0.39897,-1.34025 0.57622,-0.11127 -2.65381,-0.28894 -7.17784,-0.39482 -8.45087,-0.1978 -12.23371,-1.10839 -12.23371,-2.94487 0,-0.46769 -0.27607,-0.85035 -0.61349,-0.85035 -0.33743,0 -0.6135,-0.82822 -0.6135,-1.84049 0,-1.01227 -0.27607,-1.84049 -0.6135,-1.84049 -0.33742,0 -0.61349,-1.10429 -0.61349,-2.45399 0,-1.34969 -0.27608,-2.45398 -0.6135,-2.45398 -0.33742,0 -0.6135,-1.08801 -0.6135,-2.41778 0,-1.32978 -0.27607,-2.58841 -0.6135,-2.79695 -0.33742,-0.20854 -0.61349,-1.46716 -0.61349,-2.79694 0,-1.32978 -0.27608,-2.41778 -0.6135,-2.41778 -0.35302,0 -0.61146,-1.88843 -0.60871,-4.44785 0.005,-4.22782 0.0865,-4.48579 1.65605,-5.21473 2.07311,-0.96278 2.91934,-0.96278 4.61211,0 2.16635,1.23214 2.92951,2.13025 2.92951,3.44758 0,0.67904 0.27607,1.40523 0.6135,1.61377 0.33742,0.20854 0.61349,1.19109 0.61349,2.18345 0,0.99235 0.27608,1.80428 0.6135,1.80428 0.33742,0 0.6135,0.81193 0.6135,1.80429 0,0.99235 0.27607,1.9749 0.61349,2.18344 0.33743,0.20854 0.6135,1.1748 0.6135,2.14724 0,0.97244 0.27607,1.9387 0.6135,2.14724 0.33742,0.20854 0.61349,0.88051 0.61349,1.49326 0,0.757 0.61452,1.23701 1.91718,1.49754 1.05445,0.21089 12.97503,0.38343 26.49019,0.38343 24.68406,0 27.55947,0.21834 29.72147,2.2568 0.42178,0.39767 0.76687,1.15688 0.76687,1.68711 0,0.53024 0.27607,0.96407 0.6135,0.96407 0.33742,0 0.61349,0.55215 0.61349,1.22699 0,0.67485 0.27608,1.227 0.6135,1.227 0.33742,0 0.6135,0.55214 0.6135,1.22699 0,0.67485 0.27607,1.22699 0.61349,1.22699 0.33743,0 0.6135,0.55215 0.6135,1.227 0,0.67484 0.27607,1.22699 0.6135,1.22699 0.33742,0 0.61349,0.55215 0.61349,1.227 0,0.67484 0.27608,1.22699 0.6135,1.22699 0.33742,0 0.6135,0.55215 0.6135,1.22699 0,0.67485 0.27607,1.227 0.6135,1.227 0.33742,0 0.61349,0.38802 0.61349,0.86227 0,0.74329 0.84622,2.6967 3.1443,7.25824 0.78186,1.55195 0.65648,5.62472 -0.19951,6.48071 -0.40491,0.40491 -1.74763,0.7362 -2.98383,0.7362 -3.21318,0 -4.68331,-1.76272 -9.44883,-11.32938 -2.25366,-4.52415 -4.49454,-8.5552 -4.97977,-8.9579 -1.08948,-0.90419 -9.99978,-0.45452 -10.61167,0.53554 -0.2277,0.36843 -0.19505,2.54765 0.0726,4.84271 0.72433,6.21184 1.53169,14.84925 2.22509,23.80474 0.66434,8.58017 1.20106,11.0187 3.57835,16.25766 1.71424,3.77779 5.76643,10.62656 6.47324,10.9407 0.25307,0.11248 0.46012,0.54354 0.46012,0.95794 0,0.41439 0.49064,1.28862 1.0903,1.94274 0.59966,0.65412 1.75988,2.15556 2.57826,3.33654 0.81838,1.18098 1.98419,2.59373 2.59068,3.13945 0.6065,0.54571 1.10273,1.25286 1.10273,1.57143 0,0.31857 0.48313,1.12847 1.07362,1.79977 2.98473,3.39318 3.32322,5.84543 1.15486,8.36665 -1.07869,1.25421 -2.01273,1.68712 -3.64022,1.68712 -1.83872,0 -2.73586,-0.54664 -5.60347,-3.41425 z"
       id="path4273"
       inkscape:connector-curvature="0"
       inkscape:export-xdpi="90.300003"
       inkscape:export-ydpi="90.300003" />
    <path
       style="fill:#ffffff;fill-opacity:1;stroke:#000000;stroke-width:0.61349696;stroke-opacity:1"
       d="m 151.60824,502.79165 c -0.84356,-0.65984 -1.8557,-1.20585 -2.24919,-1.21335 -0.3935,-0.007 -1.08206,-0.84186 -1.53013,-1.85413 -0.44808,-1.01227 -1.02336,-1.84049 -1.27842,-1.84049 -0.25505,0 -0.46373,-0.55215 -0.46373,-1.227 0,-0.67484 -0.27608,-1.22699 -0.6135,-1.22699 -0.33742,0 -0.6135,-1.51841 -0.6135,-3.37423 0,-1.85583 0.27608,-3.37424 0.6135,-3.37424 0.33742,0 0.6135,-0.41785 0.6135,-0.92857 0,-2.11669 1.85552,-4.41006 5.09641,-6.29902 2.83457,-1.65214 8.45505,-1.85222 11.35744,-0.40432 2.70288,1.34837 6.24553,5.67046 6.24553,7.61964 0,0.88405 0.30165,1.90901 0.67033,2.2777 0.48478,0.48477 0.48478,1.01704 0,1.92285 -0.36868,0.68889 -0.67033,1.92254 -0.67033,2.74143 0,1.54475 -4.01691,6.20449 -6.58676,7.64084 -2.22458,1.24338 -8.7773,0.9587 -10.59115,-0.46012 z"
       id="path4275"
       inkscape:connector-curvature="0"
       inkscape:export-xdpi="90.300003"
       inkscape:export-ydpi="90.300003" />
    <circle
       inkscape:export-ydpi="90.300003"
       inkscape:export-xdpi="90.300003"
       r="80"
       cy="662.4079"
       cx="306.60818"
       id="circle4361"
       style="fill:#ff9800;fill-opacity:1;stroke:none;stroke-opacity:1" />
    <path
       style="opacity:1;fill:#ffffff;fill-opacity:1;stroke:#000000;stroke-width:0.67164117;stroke-opacity:1"
       d="m 270.88394,662.34922 c -2.32618,-1.1967 -2.63935,-4.69749 -0.55381,-6.19084 1.20148,-0.86032 3.33285,-1.08387 10.33361,-1.08387 l 8.81991,0 0.01,-6.28157 c 0.0121,-7.75905 0.77,-9.59863 4.07158,-9.88255 2.16851,-0.18649 60.24938,5.45312 65.60145,6.36986 1.24237,0.21279 3.11064,1.2577 4.15173,2.32199 1.83053,1.87135 1.89287,2.16049 1.89287,8.77821 l 0,6.84312 -46.33322,-0.01 c -35.88599,-0.008 -46.70767,-0.20265 -47.99391,-0.86434 z"
       id="path4363"
       inkscape:connector-curvature="0"
       inkscape:export-xdpi="90.300003"
       inkscape:export-ydpi="90.300003" />
    <path
       style="opacity:1;fill:#ffffff;fill-opacity:1;stroke:#000000;stroke-width:0.67164117;stroke-opacity:1"
       d="m 253.61277,662.54449 c 0,-32.36989 0.0362,-33.31229 1.32855,-34.63352 0.73071,-0.74699 2.07586,-1.35817 2.98924,-1.35817 0.91337,0 2.25854,0.61118 2.98924,1.35817 1.2695,1.29782 1.32855,2.26363 1.32855,21.73083 l 0,20.37265 51.48136,0 51.48135,0 0,12.90268 0,12.90268 -4.31779,0 -4.31779,0 0,-8.82814 0,-8.82815 -47.16356,0 -47.16357,0 0,8.82815 0,8.82814 -4.31779,0 -4.31779,0 0,-33.27532 z"
       id="path4365"
       inkscape:connector-curvature="0"
       inkscape:export-xdpi="90.300003"
       inkscape:export-ydpi="90.300003" />
    <path
       style="opacity:1;fill:#ffffff;fill-opacity:1;stroke:#000000;stroke-width:0.67164117;stroke-opacity:1"
       d="m 276.19815,649.20624 c -4.27356,-1.4704 -5.97848,-3.8735 -5.97848,-8.42677 0,-2.29932 0.4157,-3.24295 2.25853,-5.12688 1.92781,-1.97081 2.71571,-2.3089 5.38063,-2.3089 2.66493,0 3.45282,0.33809 5.38064,2.3089 1.8508,1.89207 2.25853,2.82327 2.25853,5.15815 0,2.9883 -1.38235,6.07734 -3.25449,7.27259 -1.46245,0.93367 -4.79582,1.55283 -6.04536,1.12291 z"
       id="path4367"
       inkscape:connector-curvature="0"
       inkscape:export-xdpi="90.300003"
       inkscape:export-ydpi="90.300003" />
  </g>
</svg>
